# xmcd
#
# Track frame offsets:
#	150
#	12672
#	25866
#	41533
#	54583
#	70327
#	85730
#	93300
#	98491
#	112724
#	127645
#	135705
#	146961
#	157626
#	166298
#	177726
#	188884
#	200863
#	217581
#	233186
#
# Disc length: 3237 seconds
#
# Revision: 0
# Processed by: cddbd v1.5.2PL0 Copyright (c) Steve Scherf et al.
# Submitted via: audiograbber 1.83.01
#
DISCID=080ca314
DTITLE=Jessica Michelle - The Music Is In My Heart
DYEAR=2008
DGENRE=Gospel
TTITLE0=Amazing Grace
TTITLE1=A Rose Among The Thorns
TTITLE2=It is Well With My Sould
TTITLE3=Goodbye World Goodbye
TTITLE4=In The Garden
TTITLE5=I Know Who Holds Tomorrow
TTITLE6=I Stand Upon The Rock Of Ages
TTITLE7=Sanctuary
TTITLE8=My God Is Real
TTITLE9=Sweet Hour of Prayer
TTITLE10=I'll Fly Away
TTITLE11=Just Any Day Now
TTITLE12=The Lily Of The Valley
TTITLE13=Little Is Much When God Is In It
TTITLE14=All Together Lovely
TTITLE15=What A Day That Will Be
TTITLE16=Jesus Is Coming Soon
TTITLE17=Till The Storm Passes By
TTITLE18=I Just Want To Thank You Lord
TTITLE19=Stand Still
EXTD=
EXTT0=
EXTT1=
EXTT2=
EXTT3=
EXTT4=
EXTT5=
EXTT6=
EXTT7=
EXTT8=
EXTT9=
EXTT10=
EXTT11=
EXTT12=
EXTT13=
EXTT14=
EXTT15=
EXTT16=
EXTT17=
EXTT18=
EXTT19=
PLAYORDER=
